<?xml version="1.0" encoding="UTF-8" standalone="no"?>
<svg
   version="1.1"
   viewBox="0 0 200 200"
   width="180mm"
   height="180mm"
   xml:space="preserve"
   stroke="black"
   fill="none"
   stroke-width="0.5"
   id="svg140779"
   sodipodi:docname="black.svg"
   inkscape:version="1.2.1 (9c6d41e410, 2022-07-14)"
   xmlns:inkscape="http://www.inkscape.org/namespaces/inkscape"
   xmlns:sodipodi="http://sodipodi.sourceforge.net/DTD/sodipodi-0.dtd"
   xmlns="http://www.w3.org/2000/svg"
   xmlns:svg="http://www.w3.org/2000/svg"><defs
   id="defs140783" /><sodipodi:namedview
   id="namedview140781"
   pagecolor="#ffffff"
   bordercolor="#000000"
   borderopacity="0.25"
   inkscape:showpageshadow="2"
   inkscape:pageopacity="0.0"
   inkscape:pagecheckerboard="0"
   inkscape:deskcolor="#d1d1d1"
   inkscape:document-units="mm"
   showgrid="false"
   inkscape:zoom="1.2553009"
   inkscape:cx="336.57269"
   inkscape:cy="239.78315"
   inkscape:window-width="1920"
   inkscape:window-height="1009"
   inkscape:window-x="892"
   inkscape:window-y="-8"
   inkscape:window-maximized="1"
   inkscape:current-layer="svg140779" />










































































































































































































































































































































































































































































































































































































































































































































































































































































































































































































































































































































































































































































































































































































































































































































































































































































































<g
   inkscape:groupmode="layer"
   id="layer1"
   inkscape:label="outline"
   style="display:inline"><path
     d="m 95.278952,88.116364 -0.161542,2.099272 1.617986,2.63295 2.338631,2.603416 2.984023,2.294972 2.68124,2.301906 -1.74203,3.24984 -2.08258,3.15353 2.94319,2.24797 2.81196,1.98216 2.13522,1.7916 1.32855,1.59256 -0.53291,3.51206 -1.34344,3.41908 -1.64598,3.40368 -1.89124,3.04875 -2.02762,3.13375 -1.87815,2.80502 -2.248743,-2.55436 -1.936703,-2.6802 -2.185051,-2.49941 -2.409257,-2.34197 -1.508836,-2.62627 0.324111,-2.64682 0.07782,-2.48194 0.559104,-2.80348 0.670051,-2.57799 1.151338,-2.78935 2.058181,2.56746 2.177089,2.44444 2.483736,2.46165 2.85561,2.32296 2.83328,1.97343 2.54126,1.84065 1.81625,1.50781 0.90505,1.39275 -0.0873,1.47982 0.45689,3.27244 -0.1975,3.43501 -1.49831,-1.33574 1.03089,-3.3292 0.29535,-3.52233 -0.30408,-3.34075 -0.13535,-1.39609 -0.27171,-3.48047 -0.13381,-1.61439 -0.44276,-3.30737 -0.11198,-1.80392 -0.31615,-3.30223 -0.29714,-1.84502 -1.42306,-1.82499 -2.80322,-1.93413 1.86068,-3.56599 1.1688,-3.433211 -1.9611,-1.864279 -2.56746,-2.350188 -2.2567,3.358989 -1.90948,3.257801 -1.574326,2.993787 -1.573298,3.033081 2.450349,2.41825 2.537925,2.55513 -1.652912,2.9152 -1.718404,3.03154 -1.499847,2.81812 -1.28694,2.65837 2.353527,2.47578 2.06948,2.57106 2.591086,2.39282 2.94936,2.13497 2.69587,1.78312 2.23641,1.51654 -1.46594,3.31456 -1.67372,3.23392 -1.83551,3.0829 -1.99346,2.79809 -2.699469,-2.25722 -1.990893,-2.64194 1.331371,-2.40746 1.489571,-2.48374 2.90184,2.08541 2.79655,1.82396 2.47501,1.47544 1.84142,1.31057 -1.09381,3.46455 -1.50344,3.15995 -2.69767,-1.55507 -2.85048,-1.97445 -1.80675,2.73876 -1.491117,2.34402 -1.249187,2.20303 -0.878078,2.10903 -0.724242,1.95674 -0.895285,2.02068 1.31288,2.76316 1.320071,2.82968 2.080778,2.56053 2.59571,2.20482 1.84065,-2.55256 1.80727,-2.75366 -2.84252,-1.65266 -2.76162,-2.11596 -1.506009,2.22332 -1.214259,2.08617 -0.849058,1.85889 -0.732202,1.79185 1.217855,2.82608 1.888677,2.63835 -1.206298,1.88071 -1.005719,1.7351 1.846815,2.64271 2.461898,2.27032 1.5769,-2.12008 1.73407,-2.37099 -2.8944,-1.75076 -2.513266,-2.28701 1.500876,-2.02865 1.65034,-2.32117 2.92111,1.67911 2.72052,1.20476 1.45542,-3.0829 1.1968,-3.19309 0.88244,-3.24187 0.53625,-3.34769 -1.02986,-0.64643 -1.77439,-0.85522 -2.44085,-1.08405 -2.76573,-1.57355 -1.91667,2.62704 -1.74126,2.43905 -2.31757,-2.46088 -1.416122,-2.79989 -1.398659,-2.82531 -2.042514,-2.45831 -1.351404,2.27751 -1.459782,2.33863 -1.443089,2.28984 -1.372463,2.18993 2.571827,2.06794 2.609579,2.04328 1.955965,2.52303 1.362704,2.77446 -0.747869,1.7482 -0.92405,1.7315 -1.967522,-2.50377 -2.525598,-2.07487 -2.62165,-1.9683 -1.82139,-2.50274 0.923279,-1.83911 1.184725,-1.99962 -1.607456,-2.61729 0.171301,-2.67584 -0.0131,-1.96469 0.393967,-2.03815 1.344469,2.6463 2.526369,2.1699 2.557188,2.13061 2.075644,2.51429 -1.043215,1.93517 -1.223763,2.01092 -1.404052,2.09491 -1.442318,2.10364"
     id="path137599"
     style="stroke-width:0.128412" /><path
     d="m 111.24231,163.51757 -2.01632,-0.70318 -2.62961,-1.21092 1.75435,-3.03128 1.50602,-3.14583 1.10254,-3.21748 0.90684,-3.40624 0.44019,-3.34487 -0.0647,-3.32149 -0.26375,-0.93663 -1.14877,-1.11539 0.69547,-3.33202 0.25426,-3.42088 -0.62819,-1.24585 -0.0411,0.16334 -2.27237,2.27237 -1.84065,1.84065 -0.75737,0.75814"
     id="path137639"
     style="stroke-width:0.128412" /><path
     d="m 101.23879,179.18378 1.54171,-1.54171 0.28327,-0.28301 2.05536,-2.05562 0.0359,-0.0359 1.7916,-2.60239 1.64341,-2.87154"
     id="path137629"
     style="stroke-width:0.128412" /><path
     d="m 97.255976,167.10642 -0.747869,0.74684 -0.320515,0.32077 -1.124371,1.12515 -0.0226,0.0218 1.284116,2.73336 1.260488,2.82095"
     id="path137615"
     style="stroke-width:0.128412" /><path
     d="m 86.08263,160.2251 -0.133548,-2.74236 0.146646,-1.80033 0.48745,-1.91333"
     id="path140085"
     style="stroke-width:0.128412" /><path
     d="m 112.30632,145.42978 0.16514,0.86318 0.17028,3.30917 -0.77561,-0.79949 -1.50524,-0.9505 -2.12906,-1.14338 -1.69658,3.11244 -1.88508,2.94756 -2.88027,-2.03635 -2.38409,-2.47039 -1.813684,-2.65657 -1.449253,-2.79655 -2.130605,-2.51764 -2.564892,-2.16733 -1.407391,2.37433 -1.209893,2.3692 2.380493,2.2757 2.626787,2.1473 1.246619,-2.25028 1.058882,-2.23128 0.947934,-2.19455 0.922508,-2.33427 -1.694775,-2.69921 -2.043285,-2.52483 1.238658,-2.42595 1.134901,-2.47577"
     id="path138371"
     style="stroke-width:0.128412" /><path
     d="m 88.810092,142.86746 -0.968994,2.20225 -0.70575,2.02069 0.56347,-2.64425 -0.09785,-2.12547 0.13021,-2.16142 0.560901,-2.24156 0.199809,-2.64091"
     id="path138411"
     style="stroke-width:0.128412" /><path
     d="m 55.989639,146.94709 -2.226656,0.52854 -1.844247,0.31358 -0.787933,-2.82325 -0.732203,-2.82352 1.465946,-0.20263 1.837313,-0.34003 1.151338,2.6838 1.136442,2.66351 2.635776,-0.89631 2.678408,-1.35218 -1.213489,-2.35275 -1.333169,-2.45035 -2.68714,1.07634 -2.368166,0.62794 -0.98466,-2.86718 -0.826457,-2.80579 -1.287711,0.21907 -0.981064,0.17387 -0.0069,-2.90647 0.192103,-2.92727 0.273517,-0.25528 0.719875,-0.22703 0.456888,2.9057 0.633326,3.01741 1.952626,-0.46408 2.443415,-0.86292 2.750833,-0.98466 2.592886,-1.49292 2.044312,-1.84758 1.859913,-1.85914 0.875253,2.23718 1.024724,2.36406 -2.285212,1.67371 -1.576123,1.93003 -2.163735,1.85015 -2.652469,1.42486 -1.234292,-2.5292 -1.23609,-2.76649 -1.146201,-2.64708 -1.118979,-2.78859 -1.9046,0.48848 -1.316475,0.35108 -0.294319,-2.97273 -0.0098,-3.08393 0.171301,-2.88284 -0.277882,3.27167 0.106581,-0.38883 0.615862,-0.31974 1.228385,-0.55731 1.954167,-0.51981 2.559756,-0.96617 2.777028,-1.06941 2.64271,-1.52425 -1.08405,-2.4768 -1.1706,-2.70717 -2.903128,1.21066 -2.512501,0.86575 1.166491,2.97556 1.08405,2.72566 1.23686,2.91854 1.157759,2.63577 -2.754685,1.23712 -2.47295,0.7887 -0.879876,-3.0978 -0.801031,-2.99635 -0.457659,-2.91443 -0.384464,-3.096 -0.507482,0.49181 0.26273,-3.01561 0.473582,-3.50846 0.441992,-0.52855 1.042188,-0.60713 0.63949,3.00612 0.753005,2.98505 -1.888677,0.76277 -1.216828,0.414 0.03493,-3.1091 0.193902,-2.92316 0.418364,-3.04079 0.449184,-3.54775 0.268123,-0.70062 0.334641,-3.23417 -0.602764,3.93479"
     id="path138639"
     style="stroke-width:0.128412" /><path
     d="m 93.908287,81.894567 -3.266276,-0.319745 -2.435711,-0.998528 -1.136442,-0.867548 -1.759495,-0.740678 0.04186,-3.295298 0.173869,-3.763485 -2.546401,-0.61766 -1.416122,-0.501319 -0.127641,-3.682329 -0.07936,-3.352056 1.598467,0.715509 2.58852,0.389601 2.201488,0.737339 1.230953,0.754033 0.456889,-3.917323 0.246293,-3.463003 2.230252,0.483085 2.405919,0.626391 3.08727,0.749667 1.961358,1.064788 -0.132777,-4.049073 0.308444,-4.275334 -2.429546,-0.261189 -2.339659,-0.600196 -0.416567,3.656134 -0.03852,3.715203 -0.08552,3.748847 -0.104014,3.870838 0.0375,3.621976 0.01926,3.38082 -3.089068,-0.489248 -2.500173,-0.765333 -1.085078,-0.867549 -1.982161,-0.672619 0.03056,-3.308396 -0.0131,-3.739858 0.07268,-3.423452 -0.04109,-3.743454 -2.3299,-0.402698 -1.922064,-0.760197 0.08655,-3.604255 0.257593,-3.527722 2.135228,0.285587 2.118533,0.782026 2.683545,-1.433586 2.660174,0.219327 2.605213,-0.412458 2.634749,-0.431463 -2.189417,-0.488478 -2.194297,-0.473325 -2.601618,0.416567 -2.615743,0.398333 -2.604187,-0.35647 -2.63218,1.49394 -2.052787,-0.509281 -2.030187,-0.481286 -2.034809,-0.449954 -2.002193,-0.730405 2.402323,-1.424855 -2.092338,-0.08629"
     id="path137677"
     style="stroke-width:0.128412" /><path
     d="m 85.921088,50.466866 -0.380868,3.590387 0.03493,3.636872 2.243349,0.635124 1.860684,0.642828 0.132777,-3.639183 0.542668,-4.042396 2.660944,-1.237887 2.647076,0.233452 2.629355,-0.428895 2.636547,-0.447386 2.23307,0.512876 2.30448,0.518783 2.56823,-0.460227 2.59905,-0.449184 2.30447,0.516215 2.34839,0.533935 2.52124,-0.457916 2.54383,-0.449697 2.36405,0.249632 2.44419,0.934836 -2.522,0.472555 -2.58493,0.434288 1.14877,3.396485 -0.20006,3.641238 -0.084,3.417545 -0.15281,3.690805 -0.12585,3.545957 0.0498,3.564448 2.64527,-0.801031 2.76753,-0.49721 0.0385,-3.448107 0.0375,-3.382617 -2.67764,0.522378 -2.73516,0.496182 -2.25311,0.756601 -1.33908,0.815927 -0.41759,-3.881367 -0.42376,-3.520532 2.26184,-0.795124 2.40849,-0.483855 2.66274,-0.390628 2.54743,-0.633325 -0.0159,3.587048 -0.0182,3.526695 2.62781,-0.536247 2.69331,-0.631785 0.0524,3.555716 0.0717,3.34923 -2.85407,0.615862 -2.66711,0.477948 -0.0444,3.554689 -0.0359,3.408813 2.62165,-0.648992 3.01125,-0.461254"
     id="path138847"
     style="stroke-width:0.128412" /><path
     d="m 146.52877,59.766174 -0.82465,0.825687 -1.21426,1.213489 -1.23019,1.229926 -0.593,0.593261 -1.66961,1.670378 -0.0426,0.04186 -0.11198,0.111718 -1.46235,1.462351 -0.60815,0.608157 -1.27616,1.277181 -0.50594,0.504914 0.20263,-3.215682 0.11095,-3.50846 -2.88181,0.573999 -2.92316,0.570404 -0.16437,-3.473275 -0.20417,-3.466599 -2.46114,0.554738 -2.45728,0.439425 -0.0306,-3.485604 -1.02139,-3.435009 2.44624,-0.491046 2.30961,-0.434031 1.05015,3.311734 0.16437,3.539793 2.59109,-0.599168 3.19102,-0.822861 -0.64283,-3.438605 -1.39069,-3.101396 2.42056,-1.654454 2.81041,-0.788961 -2.18839,0.244753 -2.77523,0.512618"
     id="path137519"
     style="stroke-width:0.128412" /><path
     d="m 120.396,105.91164 -0.0265,-3.15636 0.064,-3.073401 -0.005,-3.273211 0.0437,-3.243676 -0.0288,-3.304029 -0.002,-3.192054 -0.027,0.0208 2.53947,-0.787162 2.9039,-0.602764 0.096,-3.415748 0.0673,-3.19642 -2.84792,0.394737 -2.59622,0.828255 -1.67397,1.002894 -0.15898,0.967196 -1.82575,1.08328 -3.3292,1.017533 0.51442,3.60631 0.5591,3.397513 3.12656,-0.974901 1.32085,-1.152365 -0.18338,-3.296068 -0.1826,-3.681302 -0.39756,-3.575749 -0.32129,-3.642008 -0.39756,-3.427048 -0.45509,-3.751415 -2.17349,1.032686 -3.64638,0.46485 -0.59146,-3.834369 -0.34337,-3.507433 3.45761,-1.106908 2.45574,-0.450725 -0.25426,-3.896263 -1.20296,-3.436036 2.58236,-0.503887 2.59648,-0.480516 -2.38152,-0.994933 -2.38486,-0.188765 -2.57722,0.462025 -2.58492,0.457915 2.37792,-0.155635 -2.59802,0.171301 -2.67584,0.454321 2.40489,1.848355 -3.18692,0.808993 -2.51943,2.469611 -2.1419,-2.792694 -2.245153,-0.734771 2.598793,-0.97413 5.08972,-0.625364 -0.90068,1.048351 -0.73913,0.738881 -0.75815,0.758398 -1.63211,1.631854"
     id="path137583"
     style="stroke-width:0.128412" /><path
     d="m 120.26733,72.437827 -1.25099,1.250985 -0.29175,0.291751 -0.0943,0.09451 -0.60097,0.600966 -2.00938,1.06145 -3.52233,0.763535 -2.51764,0.07782 -2.43468,0.222666 -1.11051,-3.098571 -1.05348,-3.351285"
     id="path139211"
     style="stroke-width:0.128412" /><path
     d="m 97.552864,72.236991 0.850084,-3.300434 1.433587,-4.277132 2.084375,-3.386983 2.00579,-4.173376"
     id="path139233"
     style="stroke-width:0.128412" /><path
     d="m 98.402948,68.936557 0.956666,-2.855102 0.09092,-3.233147 0.386005,1.811117 2.635771,2.910833 2.75083,2.629355 -1.70171,3.289134 -2.3055,3.766054 -1.80392,3.414977 -1.804953,3.435009 -1.393265,-2.57722 -0.644626,3.17382 -0.29021,3.414977"
     id="path138661"
     style="stroke-width:0.128412" /><path
     d="m 103.9267,57.099066 0.94177,3.788912 0.0262,3.112696 0.22985,2.777028 0.0986,3.421911 0.61509,2.681233 -0.0873,3.344865 0.5984,2.203285 0.1826,3.448107 -1.58922,3.570355 -1.70248,3.387754 -3.05594,-2.244121 -2.577217,-2.486304 -1.415095,3.034878 -1.074548,3.075971 -0.920711,3.28297 -0.350306,2.908265 -0.243725,3.16406 -0.36623,2.173499 -0.829025,3.06544 0.900678,2.57722 1.149798,-2.98146 1.468514,-2.92676 -1.810089,-2.411055 -0.269921,-2.660944"
     id="path137589"
     style="stroke-width:0.128412" /><path
     d="m 96.628814,128.15432 1.152109,-2.5536 1.398658,-2.6784 1.646749,-2.70204 2.05638,-3.03668 1.94647,-3.21208 1.84065,-3.28914 1.47468,-3.30403 0.82106,-3.57035 -0.18235,-3.28477 -0.41759,-1.946461 -0.10581,-3.433211 -0.49105,-2.093879 -0.0907,-3.302232 -0.57502,-2.093108 -0.004,-3.273467 -0.56681,-2.503769 -2.19455,-2.023252 -3.12143,-2.59905 -2.427747,-2.775231 -1.235319,-2.242579 -0.419135,3.878799 -0.05085,2.809388"
     id="path137673"
     style="stroke-width:0.128412" /><path
     d="m 119.40517,100.59566 1.02832,-0.913781 2.34993,-0.994162 2.76137,-0.60713 0.077,-3.198218 0.0742,-3.089839 -2.85664,0.496952 -2.36765,0.87551 -0.0252,0.02183 -1.07532,0.933809"
     id="path137895"
     style="stroke-width:0.128412" /><path
     d="m 136.35216,82.711265 0.14844,-3.190257 0.0902,-3.422682 0.16847,-3.234173 0.22626,-3.489969 -2.32733,0.759169 -3.03565,0.496952 0.028,3.525925 0.003,3.421141 0.0447,3.249582 7.7e-4,3.462233 0.0236,3.205923 0.008,3.294527 2.85665,-0.506712 1.51654,-1.106908 0.11274,-3.14069 0.13535,-3.324061 -1.70967,0.957693 -2.9432,0.620228 -3.12553,0.392169 -2.71616,0.61843 -0.0516,3.175617 -0.10992,3.317128 2.85305,-0.593262 3.18178,-0.409632 -0.0157,3.247014 0.0182,3.272697 -3.22801,0.234993 -2.96065,0.536247 -0.0164,3.081103 0.004,3.11527 -0.005,3.12066 0.0229,3.04258 3.15199,-0.35981 3.13427,-0.34594 -0.0313,-3.07931 -0.036,-3.06467 -0.0365,-3.18255 7.7e-4,-3.098573 2.81376,-0.653615 1.38299,-1.123344 -0.0961,3.122969 -0.14151,3.116293 -1.22993,1.12 -2.69356,0.69882 -3.23392,0.19904 -3.00252,0.48745 -2.84637,0.63178 -2.29034,1.0029 -1.17959,1.17137"
     id="path137579"
     style="stroke-width:0.128412" /><path
     d="m 136.91203,55.363456 0.23345,3.523099 0.15795,3.694401 0.78639,-0.940743 0.60457,-3.68233 0.3711,-3.330225 -0.13868,-3.520532 0.57811,-1.390697 0.60456,-3.336389 2.46525,0.784595 2.55718,0.683149 -0.51364,3.388781 -1.50268,3.390322 -1.83885,3.102937 -1.49471,2.997382 2.67584,1.534005 2.45395,2.367652 2.78242,1.477247 2.14986,2.053814 -1.36886,3.009453 -1.96753,3.041043 -1.99602,2.708199 -1.84502,2.782422 2.30088,2.267748 2.59031,2.281103 2.1622,1.997827 2.1324,2.422612 1.62929,1.780298 1.21682,2.329129 0.0175,-2.743128 -0.65593,-4.960281 -0.54164,-2.087972 -0.98466,-2.149867 -1.50344,-1.996286 -2.11674,-2.43648 -2.40592,-2.195324 -2.60315,-2.135228 -2.18506,-1.840651 1.50704,-2.948329 1.68528,-2.657349 1.80212,-3.329455 1.2099,-3.642779 0.53907,-2.252338 0.85085,4.704485 0.68495,2.626017 0.49105,2.699467 -0.64566,2.725664 1.58203,2.340172 0.6038,2.277508 -0.0901,3.039244 -0.90941,3.025376 -1.53041,2.635519 -1.9421,2.772149 -2.24258,2.703577 -2.01965,2.279305 -1.83552,-2.280846 -1.14183,-2.293174 0.94434,-2.251311 1.40405,-2.706402 -1.61901,-2.240782 -1.40123,-2.1229 -2.56823,-1.884311 -0.34517,-0.07165 0.33104,0.06909"
     id="path137511"
     style="stroke-width:0.128412" /><path
     d="m 153.71931,93.345796 -0.79667,0.796665 -0.72244,0.723214 -1.5412,1.540168 -0.38343,0.383694 -1.92104,1.921037 -0.0542,0.05496 -2.28187,2.280846 2.21741,2.21202 -2.12393,2.43468 -2.25285,2.43751 2.28958,2.19352 2.23025,2.14653 2.12829,-2.55179 1.85529,-2.40592 -1.88508,-2.01272 -2.24155,-2.24181 2.12624,-2.63038 1.93927,-2.425185 1.58049,-2.873081 0.81669,-2.549996 0.65182,1.768997"
     id="path138113"
     style="stroke-width:0.128412" /><path
     d="m 155.15906,137.90974 -1.79879,-1.93593 -1.92181,-1.98833 -2.06537,-2.12803 -2.07385,-2.23025 -1.84578,-1.84759 -1.81549,-1.80855 -2.23205,-2.27468 -2.05895,-2.40232 2.20663,-2.06717 2.27391,-2.10801 2.26004,2.20688 2.06358,2.05819 2.14986,-2.33966 2.01632,-2.51404 -1.81291,-1.93157 -2.12547,-2.12804 -2.27571,2.40746 -2.27571,2.24078 -2.20663,-2.33067 -1.99371,-2.41721 -1.46133,-2.52304 -0.77149,-2.43648 -0.77304,2.04432 -0.42992,2.04765 -0.2427,2.35352 0.52674,2.44778 1.19937,2.503 1.67217,2.48631 0.22524,-0.21162"
     id="path137499"
     style="stroke-width:0.128412" /><path
     d="m 136.58972,109.60527 -1.83269,-0.15127 -1.22402,0.58273 -1.59436,0.52238 -0.52494,2.9265 -0.45946,2.82171 -0.50928,2.88567 -0.53907,2.93446 -2.9396,-0.43943 -2.17709,-1.18113 0.33207,-2.60418 0.39217,-2.75186 2.47655,0.90247 2.96425,0.254 1.9516,-0.33977 0.73194,-0.66826 0.52521,-2.80168 0.59403,-3.04361 0.26735,-1.16624"
     id="path138119"
     style="stroke-width:0.128412" /><path
     d="m 123.83614,128.47406 -0.26042,2.51147 1.38736,1.36373 2.78499,0.7471 0.56604,-2.64707 0.5609,-2.77806 0.53291,-2.79732 0.49798,-2.74646"
     id="path139445"
     style="stroke-width:0.128412" /><path
     d="m 130.41081,133.04731 -2.66274,0.049 -0.60097,2.66095 -0.52417,2.64605"
     id="path139661"
     style="stroke-width:0.128412" /><path
     d="m 55.53198,102.14199 -0.612523,-3.289136 -0.224463,-2.965793 -0.711914,0.704979 0.506712,-2.737991 0.773038,-4.380118 0.3896,-0.86498 1.301837,-0.77124 0.467418,3.177158 1.07275,3.021781 2.889773,-0.754803 2.578761,-1.708644 -0.967966,-2.62088 -1.042188,-2.958859 -1.30158,-3.154558 -0.898881,-3.461976 -1.957762,0.895286 -0.901449,1.174195 -0.226262,3.35976 0.287386,3.03154 2.182226,-1.09381 2.816322,-0.750437 2.772919,-1.257149 2.739532,-1.482383 2.557958,-0.216759 0.03313,3.587049 0.10915,3.356421"
     id="path140381"
     style="stroke-width:0.128412" /><path
     d="m 53.98308,96.59204 -0.785365,3.91193"
     id="path140429"
     style="stroke-width:0.128412" /><path
     d="m 70.067911,75.975822 -1.885338,0.461254 -2.940625,0.79949 -2.862807,1.499847 -2.626787,0.640517 -0.676985,-2.878473 0.0087,-3.615813 -0.491046,1.11641 -0.754803,3.417545 -0.945109,4.029812 -0.87551,4.313087 -0.754803,3.714433 -0.555509,3.262937 -0.01233,3.150193 1.522704,-0.989026 2.276737,-0.861385 1.155704,3.338187 1.190632,2.819913 2.718729,-1.37066 2.473977,-1.529639 -1.00649,-3.014846 -1.064018,-2.706402 2.689965,-1.287711 2.897736,-0.74864 -1.085848,-3.142487 -0.999556,-3.140433 -1.070182,-2.700238 -1.153136,-3.317128 -0.933809,-2.828649 -1.176763,-3.437835 2.963225,-0.786135 2.7082,-0.731175 -0.946137,-3.328428 -1.004692,-3.71546 -0.979266,-3.634047 -0.406294,-3.215682 -1.837056,0.945879 -0.580934,1.544535 1.629286,-4.986478 1.432559,-3.244446"
     id="path138687"
     style="stroke-width:0.128412" /><path
     d="m 52.691773,104.1845 0.115314,-0.11531 0.06575,-0.0647 0.941513,-0.94177 -0.951273,0.67544 0.09965,2.86101 0.248861,3.29247 1.794423,-0.87525 2.569259,-0.64206 1.225817,2.87334 1.218625,2.55873 2.598023,-1.3324 2.201487,-1.7446 -0.91994,-2.67584 -0.954868,-2.51943 -0.863183,-2.57799 -1.240455,-2.76137 -2.709741,1.14261 -2.59905,0.80463 -1.674743,0.89015"
     id="path138641"
     style="stroke-width:0.128412" /><path
     d="m 70.393563,102.98514 -0.190306,3.10473 0.05239,3.27321 1.448482,0.60456 3.109871,-0.12918"
     id="path140189"
     style="stroke-width:0.128412" /><path
     d="m 74.814002,109.83846 2.676868,-1.05451 2.252852,-0.87346 -0.350307,-3.12322 -0.340547,-2.97813 -0.380869,-3.10473 -0.388059,-3.330996 -0.317948,-3.235971 -0.360836,-3.026917 -0.455861,-3.449905 -0.394223,-3.352055 -0.394738,-3.077511 -0.349536,-3.646375 -2.93857,0.508253 -2.810415,0.03673 0.294319,3.791479 0.438654,3.421911 0.327449,3.474303 0.471785,3.205153 0.557306,3.587048 0.42196,3.089839 -2.293944,-0.150241 -0.08758,-3.441944 -0.226261,-3.126564 1.628516,0.04186 3.201813,-0.242698 2.609323,-0.669281 3.095232,-0.483084 1.446685,0.225234"
     id="path138649"
     style="stroke-width:0.128412" /><path
     d="m 93.895189,95.996981 -0.561672,0.03082 -3.352055,-0.555766 -2.665311,-0.822861 -0.376502,3.614015 -0.13021,3.189481 -1.558402,-1.03782 -0.680581,-0.796662 -0.207,3.187692 -0.104013,3.42627 -0.132007,3.09703 -0.194672,3.21209 0.263757,1.09997 1.70094,1.08508 0.170273,-3.2596 0.277883,-3.15096 0.237561,-3.35206 0.226261,-3.51103 2.823514,0.8203 3.344864,0.30048 -0.01567,0.18543"
     id="path137591"
     style="stroke-width:0.128412" /><path
     d="m 84.372188,133.67011 0.231398,-3.11784 0.223693,-2.97889 0.233195,-3.24188 0.249119,-3.03744 2.874107,0.84212 1.957763,0.0262"
     id="path138581"
     style="stroke-width:0.128412" /><path
     d="m 82.780399,113.75912 -2.31937,0.036 -2.444442,1.03423 -2.300879,1.16803 0.447129,2.8908 0.461255,3.05825 0.372136,2.89619 0.324111,2.77266 0.338236,2.84535 0.359809,2.83045 1.536573,-1.38377 2.751089,-0.81079 0.05419,0.43609"
     id="path138631"
     style="stroke-width:0.128412" /><path
     d="m 81.698916,77.706553 1.1706,0.538044 2.440847,0.723471 -0.07679,3.65074 -0.09785,3.298636 1.385561,0.815157 1.101514,1.158272 0.241928,-3.476871 0.341574,-3.837708 0.165908,-3.330225 0.221125,-3.796616 0.231397,-3.682073 0.151269,-3.414977 2.489643,0.550372 2.660174,0.798463 3.335362,0.437627 1.060679,0.441992"
     id="path138655"
     style="stroke-width:0.128412" /><path
     d="m 135.44634,47.082451 -1.87224,-0.429665 -2.57003,-0.471784 -2.54922,0.422731 -2.37356,0.384464 -2.31244,-0.459456 -2.33683,-0.45432 -2.64785,0.401671 -2.46113,0.376759 2.28906,0.474353 2.25029,0.483084 -2.49684,0.403469 -2.60239,0.433261 -2.55256,0.422987 -2.57722,0.462025 -2.26878,-0.50928 -2.23205,-0.504914 -2.59879,0.440195 -2.60521,0.451751 -2.217928,-0.512875 -2.205853,-0.488221 2.609323,-0.436086 2.533558,-0.420933 2.64425,-0.42196 2.44522,-0.392169 2.59031,-0.411688 2.48194,-0.374704 2.1794,0.453549 2.33427,0.448156 -2.55514,0.417338 -2.55975,0.39936 -2.21536,-0.473582 -2.25567,-0.458429 -2.23462,-0.460484 -2.19533,-0.448156 -2.449576,0.387032 -2.585951,0.394737 2.201487,0.473582 2.17452,0.467418 2.22409,0.483855 2.26081,0.482314 2.58159,-0.438654 2.49401,-0.409633 2.2698,0.483084 2.28521,0.494385 2.27058,0.508509 2.31757,0.51904 2.54563,-0.436086 2.51943,-0.425299 2.53536,-0.469216 2.60496,-0.384464 -2.25208,-0.499521 -2.22332,-0.471784 -2.63475,0.397562 -2.58415,0.424529 2.24335,0.483855 2.31063,0.519039 2.27135,-0.03852 2.22768,1.159299 2.52997,-0.51981 2.43314,-0.590693 -2.1211,-0.467161 -2.20072,-0.396792 2.6725,-0.467418 4.6919,-0.867291"
     id="path137521"
     style="stroke-width:0.128412" /><path
     d="m 81.094355,45.991467 -2.354298,0.334383 2.360462,-0.335411 2.633977,-0.40013 2.084377,0.449184 2.09131,0.463052 2.128037,0.462025 2.082835,0.482313 2.594427,-0.422987 2.556161,-0.413229 -2.156801,-0.461254 -2.132402,-0.449954 2.570029,-0.385235 2.443415,-0.382409 2.519436,-0.380099 2.42004,-0.37753 2.12265,0.441223 2.20071,0.439424 2.21202,0.456118 2.33863,0.440195 2.45651,-0.382667 2.46962,-0.385235 -2.29421,-0.424528 -2.3019,-0.446359 2.3019,-0.3557 2.2978,-0.375475 -2.23744,-0.429922 -2.12547,-0.416567 -2.19276,-0.42119 -2.11853,-0.412458 2.28984,-0.349279 2.23205,-0.371367 -2.07565,-0.45509 -2.04174,-0.393967 -2.24335,0.367771 -2.27905,0.351077 -2.33273,0.325138 -2.319365,0.380869 -2.358663,0.341575 -2.392051,0.352104 2.011182,0.454063 2.053044,0.419392 2.391023,-0.359038 2.36123,-0.358012 2.33504,-0.350306 2.36919,-0.35493 -2.07385,-0.407835 -2.04405,-0.44302 -1.99552,-1.154677 2.28984,-0.221895 2.1211,0.138685 -1.96213,-0.128412 4.17055,0.0098 2.0985,0.337209 2.12701,0.355443 2.03301,0.457916 -2.24257,0.336181 2.11237,0.404497 2.19018,0.404496 2.15244,0.420163 2.26697,0.42196 2.27674,0.397562 2.37253,0.425299 -2.3227,0.416054 -2.20149,0.387803 -2.41825,0.370339 -2.28007,0.354672 2.34222,0.454321 2.3543,0.436856 2.28008,-0.367001 2.69407,-0.380868 2.2811,0.452522 2.3168,0.401928 2.55693,-0.352875 2.39103,-0.440451 2.108,-0.378301 -2.50454,-0.331815 -2.4732,-0.460484 -2.62088,-0.428124 -2.38846,-0.445588 -2.11494,0.311012 2.37793,0.388831 2.41208,0.42119 -2.20149,0.464593 -2.14036,0.397562 -2.44085,-0.419392 -2.5315,-0.448927 -2.38512,-0.43249 -2.30961,-0.444561 2.28342,-0.357498 2.28623,-0.392169 2.15167,-0.305619 2.26877,0.364175 2.34377,0.453293"
     id="path138697"
     style="stroke-width:0.128412" /><path
     d="m 102.93536,44.174186 2.35764,-0.354672 2.39821,-0.367771"
     id="path138785"
     style="stroke-width:0.128412" /><path
     d="m 107.69121,43.451743 2.24669,0.440452 2.20149,0.420162 -2.38666,0.378301 -2.49401,0.364175 -2.4768,0.389601 -2.47475,0.384464 -2.17169,-0.450725 -2.139596,-0.446358 -2.140364,-0.443791 -2.10107,-0.433517 -2.049448,-0.427867 -2.010155,-0.457916 -1.948003,-1.142606 2.451376,-0.408092 2.392821,-0.391398 2.369964,-0.341575 2.362259,-0.318718 1.971631,1.189862 2.025055,0.43326 2.04071,0.416824 2.19456,0.427097 2.13599,0.418365 2.30525,-0.360836 2.37972,-0.356214 2.26518,-0.360837 2.24797,-0.384464 2.17786,-0.38883 -0.50337,0.419392 -0.24886,0.248091"
     id="path138743"
     style="stroke-width:0.128412" /><path
     d="m 87.746844,42.026118 -2.466273,0.245523 -2.504538,0.35647 1.926173,1.29028 -2.519435,0.361607 -2.596995,0.377273 2.053814,0.480516 2.094906,0.452522 2.518408,-0.391398 2.527396,-0.389601 2.088742,0.448156 2.113398,0.441993 -2.54486,0.401158 -2.527397,0.401928 -2.639114,0.409633 -2.55616,0.374705"
     id="path138829"
     style="stroke-width:0.128412" /><path
     d="m 100.80193,43.754024 -2.193523,-0.430693 -2.412083,0.367771 -2.441874,0.363405 -2.424153,0.374962 -2.549997,0.379841 -2.061776,-0.430692 -2.016318,-0.460227 2.537926,-0.385235 2.454715,-0.364432 2.448808,-0.370339 2.400526,-0.348509 -1.95314,-1.223248"
     id="path138821"
     style="stroke-width:0.128412" /><path
     d="m 144.19528,134.69586 2.64451,1.17496 2.47474,1.00906 -1.21862,2.51404 -1.31545,2.60445 -2.58081,-1.09638 -2.62165,-1.53144 1.31056,-2.29317 1.30672,-2.38152"
     id="path139453"
     style="stroke-width:0.128412" /><path
     d="m 138.41034,141.35605 0.98363,2.21895 2.10184,1.89228 2.63937,1.44668 -1.31827,2.24438 -1.35423,2.19173 2.62345,1.29644 2.45138,0.75737 1.27898,-2.46447 1.30697,-2.43289 1.37143,-2.3787 1.34704,-2.36328 1.37067,-2.20123 1.35063,-2.19199 -2.66891,-1.39249 -2.57979,-1.09895 1.34293,-2.58775 0.38858,-0.71114"
     id="path138075"
     style="stroke-width:0.128412" /><path
     d="m 158.50675,155.07066 0.87885,-1.79596 0.62099,-1.69914 -1.39865,-2.34557 -1.83013,-2.11417 -2.34222,-1.87814 -2.59366,-1.47314 -2.58313,-0.98697 -2.47834,-0.7792 -1.25201,2.4827 -1.39327,2.43289 2.60856,0.92508 2.37972,0.66748 2.60136,1.07814 2.57979,1.51295 1.26768,-2.06152 1.20552,-1.92027 1.05606,-1.90357 0.90171,-1.85195 -1.81985,-2.15706 -2.3525,-1.83192 0.7417,-1.29464"
     id="path137497"
     style="stroke-width:0.128412" /><path
     d="m 158.08042,141.52555 -1.31057,-1.7672 -1.61079,-1.84861 1.67731,-2.4976 1.32084,-2.51327 -1.11127,-1.82242 -1.46158,-1.79442 -1.96547,2.39462 -2.18043,2.30883 0.004,-0.0637 1.01239,-1.01239"
     id="path139465"
     style="stroke-width:0.128412" /><path
     d="m 147.29924,129.6272 2.39282,-1.99706 2.28958,-2.26955 -1.92437,-2.02582 -1.90614,-1.95082 -2.23128,2.32887 -2.28188,2.25824"
     id="path139493"
     style="stroke-width:0.128412" /><path
     d="m 158.07683,123.99507 -0.96104,-1.66756 -1.3853,-1.82935 1.26485,-2.60958 0.602,-2.85561 -0.0534,-2.60881 0.44199,4.50519 -0.38857,-1.89638 -0.79153,-1.84425 -1.15673,-1.89921 -1.50345,2.64605 -1.82832,2.59469 1.80033,1.97599 1.61285,1.99192 -1.75256,2.47835 -1.99629,2.38408 1.83629,2.03199 1.76643,1.88945 1.49573,-2.51764 0.99674,-2.76932 0.66825,1.80931 -0.28379,-4.29998 -0.47538,-4.57505"
     id="path138083"
     style="stroke-width:0.128412" /><path
     d="m 137.86254,119.08641 -1.3794,1.37939 -0.0339,0.0339 -0.0236,0.0236 -0.7602,2.5256 -0.88039,2.67944 -0.75223,2.56566 -0.67519,2.7195 2.36637,-0.13612 2.81735,0.82029 0.82389,0.69625"
     id="path138065"
     style="stroke-width:0.128412" /><path
     d="m 126.27082,110.35827 -0.30741,1.93927 -0.44996,2.85331 -0.80385,-1.22582 -0.12045,2.7231 -0.11712,2.58312 0.31718,1.27564 -0.32334,2.73003 -0.32668,2.63809 1.81703,1.14363 2.91879,0.65259 2.49324,-0.18183 1.08328,-0.59223 0.25862,-2.91084 0.2088,-2.88463 1.12771,-0.52418 2.41645,-0.055 0.15383,-0.43763 0.70575,-2.01272 -0.85958,2.45035 2.79731,0.83956"
     id="path138059"
     style="stroke-width:0.128412" /><path
     d="m 121.15516,120.44295 0.15102,-2.67045 0.16693,-2.78679 -2.05921,0.42813 1.15674,-1.27385 1.00623,-1.00649 0.41323,-0.41297 0.35826,-0.35827 1.07275,-1.07275 0.55474,-0.55473"
     id="path138279"
     style="stroke-width:0.128412" /><path
     d="m 117.61178,117.09885 -1.48264,1.48264 -0.15538,2.343 -0.10042,2.7439 -0.0935,2.66788 -2.35173,-0.60097 -0.75044,-0.94357 0.24809,-2.67224 0.21137,-2.66018"
     id="path138245"
     style="stroke-width:0.128412" /><path
     d="m 112.67769,124.79173 -0.207,2.67867 -0.20726,2.61009 0.90942,0.9315 2.44521,0.56064 0.0935,-2.60418 0.0683,-2.63218 2.85304,-0.0411 2.25388,-0.62099 2.82095,-0.0542 0.41939,0.13021 -0.29098,2.72386 0.32591,-3.05157 -0.29535,0.24655"
     id="path138259"
     style="stroke-width:0.128412" /><path
     d="m 121.15516,120.44295 -0.15203,2.58954 -0.11635,2.64169 -0.1302,2.60161 -0.12996,2.58673 -2.20328,0.61945 -2.80528,0.0907"
     id="path139439"
     style="stroke-width:0.128412" /><path
     d="m 112.31429,119.30214 3.42961,-0.55834 2.68021,-1.13284 -0.36675,-3.14249 -0.36186,-3.14326 1.56123,-1.35936 -0.0586,-2.46859 0.0927,-2.07744 0.0829,-3.18871 0.0629,-3.233151 -0.0306,-3.382617 -0.9505,1.391724 -2.64014,0.996731 -3.5118,0.504143 -2.26955,0.146646 0.24013,3.424484 0.2183,3.56444 0.3295,3.55623 0.46896,3.42191 3.27886,-0.37213 3.12554,-0.92431 -0.40783,-3.28733 -0.49465,-3.2953 -3.34486,0.81875 -2.95552,0.0822 -1.11282,-0.18542 -0.16,-0.0717"
     id="path137857"
     style="stroke-width:0.128412" /><path
     d="m 116.36593,101.49197 0.42709,3.25061 2.21022,-1.16521 0.3706,-1.34626"
     id="path137891"
     style="stroke-width:0.128412" /><path
     d="m 116.36593,101.49197 -0.55037,-3.488173 -0.55654,-3.497931 -0.5966,-3.520531 -3.28477,0.544978 -1.61182,-0.187737 -1.36887,0.213163 -0.66645,0.09605"
     id="path137865"
     style="stroke-width:0.128412" /><path
     d="m 96.095906,82.108501 -2.187619,-0.213934 -0.163339,3.573951 -0.09092,3.440145 -3.302231,-0.255025 -2.729003,-0.762765 -0.155635,3.309166 -0.151012,3.449134 -1.449252,-0.979266 -0.933039,-0.789731 -2.178887,-0.775863 -0.53111,-1.145174 -0.114286,-3.138122 -0.08218,-3.562393"
     id="path138671"
     style="stroke-width:0.128412" /><path
     d="m 84.570456,99.618187 0.172071,-3.539023 0.191333,-3.198988 0.03929,-3.365154 0.162569,-3.597578"
     id="path140153"
     style="stroke-width:0.128412" /><path
     d="m 72.499769,116.19483 3.215939,-0.19749 -0.522635,-3.15816 -0.379071,-3.00072 -0.528541,-3.38261 -0.534449,-2.98506 3.016387,-0.6115 2.285469,-1.05015 3.164831,-0.46818 0.411688,0.12481 v -0.0383 l 1.851951,-1.851185 -1.818051,-0.859587 -0.03929,3.121172 0.173099,3.35026 v 3.0716 l -0.0087,3.31353"
     id="path140121"
     style="stroke-width:0.128412" /><path
     d="m 73.547351,47.228327 0.397562,3.950453 0.268894,3.300434 -3.222617,-0.09425 -2.078212,0.407064 -0.03159,3.670003 0.269921,3.41061 0.262216,3.935558 0.137914,3.254976 2.704604,0.209568 3.103964,-0.419136 -0.35647,-3.714689 -0.313581,-3.288107 -0.243725,-3.57395 -0.232425,-3.797643 2.153462,0.336438 1.621324,0.529312 0.527771,3.664866 0.594032,3.443741 1.651116,0.583502 0.595059,0.718848 0.0262,-3.714432 -0.05958,-3.510259 -1.331371,-0.687515 -2.00322,-0.498751 -0.434031,-3.287335 0.02979,-3.648943 2.534074,-1.72277 4.659798,1.078914 2.125469,0.496953 2.183253,0.494641 2.17786,0.496183 2.160396,0.514416 2.237443,0.51904 2.231793,0.538044 2.281876,0.528542 2.27571,0.574 2.02505,0.383437 -0.15462,0.244752 -0.15204,0.151783 -1.65111,1.650345 -0.39294,0.393967"
     id="path137681"
     style="stroke-width:0.128412" /><path
     d="m 85.135723,85.917444 -2.400782,-0.516214 -0.707548,-1.142606 -0.204431,-3.148651 -0.124046,-3.40342 -0.134575,-3.648943 -7.7e-4,-3.267304 -0.08655,-0.835188 -1.249187,-0.918143 -1.781325,-0.282249 -3.086501,0.09888 0.230628,3.256774 0.420162,3.474303 3.157383,-0.232425 2.212788,0.441993 0.323084,2.071278"
     id="path138653"
     style="stroke-width:0.128412" /><path
     d="m 82.723641,119.69251 -1.644952,0.0534 -0.307674,-2.88207 -0.309986,-3.06878 -0.332072,-3.00175 -0.385235,-2.88284 3.05337,-0.25169"
     id="path140113"
     style="stroke-width:0.128412" /><path
     d="m 80.59997,136.81439 -0.451752,0.4515 -1.460553,1.46158 -0.07961,0.0786 -0.276855,-2.75365 -0.312811,-2.76136 -2.582356,1.02652 -3.102166,0.31461 -2.100043,-0.41426 -0.169503,-3.14403 -0.01567,-3.02974 1.428193,0.59146 -0.341575,-3.21645 -0.29509,-3.02794 -0.252713,-3.28297 -0.227032,-3.22981 -0.117882,2.78935 -0.161542,3.10577 -0.03082,3.05414 -0.0015,3.21645"
     id="path138605"
     style="stroke-width:0.128412" /><path
     d="m 156.77704,106.05571 -0.5234,-1.93413 -1.04399,-1.92797 -1.18447,-1.98062 -1.72379,-2.010155 -2.04406,-2.236416 -2.3299,-2.209192 -1.99628,2.616513 -2.30011,2.520206 -2.05484,-2.441618 -1.42306,-2.467043 1.42408,-2.113397 1.71841,-2.639114 2.37792,2.459338 2.25388,2.065115 2.18916,-2.342998 1.73587,-2.743898 1.10434,-2.805279 0.56167,-2.876675 -0.63332,-4.955145 -0.85522,-5.255628 -0.75917,-4.608948 -1.27205,-5.433863 -0.87114,-3.656134"
     id="path137505"
     style="stroke-width:0.128412" /><path
     d="m 138.82716,100.80625 1.02909,2.44444 1.79083,-2.22177 1.98396,-2.134974 2.37792,2.142934 -0.19749,0.21676 -1.9778,1.97779 -0.0855,0.0855 -2.1247,2.1247 -0.12327,0.12302 -1.7821,1.78312 -0.17207,0.1713 -1.31134,1.31211 -0.29689,0.29612 -0.82722,0.82825 -0.38626,0.38601 -0.28123,0.28045 -0.0331,0.0331"
     id="path138165"
     style="stroke-width:0.128412" /><path
     d="m 131.11579,137.96316 0.3557,-2.74313 0.38164,-2.72052 -1.44232,0.5478"
     id="path139663"
     style="stroke-width:0.128412" /><path
     d="m 82.655582,128.11579 0.230628,-3.10114 0.264527,-3.09703 0.247321,-2.99378 -0.667483,-1.13747"
     id="path138621"
     style="stroke-width:0.128412" /><path
     d="m 87.17644,134.51582 -2.804252,-0.84571 -0.254255,2.95731 -0.23602,3.00432 -0.169247,2.9003 -0.251686,2.88207 2.678408,0.98543 1.118978,0.10992"
     id="path138403"
     style="stroke-width:0.128412" /><path
     d="m 55.53198,102.14199 1.019588,3.25241 1.023697,2.97991 2.824284,-1.17933 2.54486,-1.66087 2.386657,-1.43873 2.774717,-1.24045 1.070952,2.64682 1.048352,3.03334 0.01824,0.0585 -2.819918,0.69779 -2.604187,1.43795 0.789732,2.43828 1.105109,2.5369 -2.417219,1.49471 -2.022482,1.79108 0.88681,2.55873 0.773038,2.23822 2.052017,-1.76643 2.718729,-1.24585 -1.037052,-2.48451 -0.953841,-2.58595 2.799886,-1.09458 0.830823,-0.055"
     id="path138645"
     style="stroke-width:0.128412" /><path
     d="m 79.110396,62.453571 0.610726,3.385956 0.506712,3.197448 0.606102,3.406245 0.547033,3.351028 0.255026,0.213933"
     id="path139281"
     style="stroke-width:0.128412" /><path
     d="m 69.166205,62.098899 -2.314233,0.309985 -2.741329,1.316475 -2.257219,0.59506 0.468189,3.632249 0.809763,3.017414 -2.33067,1.117438 -1.716605,0.795124 0.53188,-3.228009 1.005463,-4.005414 1.23198,-1.328802 0.413999,-3.831544 0.780999,-2.439306 0.105811,-0.154608 0.403469,-0.404496 1.888678,-1.88765 0.02286,-0.02286 0.02799,-0.02799"
     id="path140597"
     style="stroke-width:0.128412" /><path
     d="m 65.340825,52.399974 0.125587,3.159181 2.311665,-0.581961 1.134901,-0.18517 0.04546,-4.253504 0.174639,-3.477899 2.704604,-1.501644 2.538697,-0.115314 2.694074,-0.419392 2.515326,-0.367 -1.901005,-1.38967 -2.548456,0.339777 -2.834813,0.613293 2.074874,1.222992 1.733299,0.386005"
     id="path138689"
     style="stroke-width:0.128412" /><path
     d="m 112.50202,51.346485 2.37176,1.403796 -2.67404,0.467418 -2.56669,0.602763 0.36443,3.993343 0.42017,3.826408 -3.40008,-0.132008 -0.14511,0.11891"
     id="path137699"
     style="stroke-width:0.128412" /><path
     d="m 107.54534,76.801508 1.06299,3.753727 0.58376,3.686695 -2.09337,0.397563"
     id="path139341"
     style="stroke-width:0.128412" /><path
     d="m 105.38135,70.351652 3.39032,-1.394292 2.58081,0.02466 0.55551,4.015943 0.58967,3.503067 0.47615,3.6944 0.61509,3.786087 -3.04644,0.09965 -1.35037,0.160771 0.4009,3.658702 0.17284,3.441944 0.0603,3.739087 0.20803,3.572923 -0.58196,-0.237561 -1.08842,0.10992"
     id="path137731"
     style="stroke-width:0.128412" /><path
     d="m 131.65384,77.577371 3.05337,-0.481544 1.88354,-0.997501"
     id="path138011"
     style="stroke-width:0.128412" /><path
     d="m 136.47364,80.102712 0.9356,0.301511 2.02762,2.01452 0.88142,2.240011 -0.53471,2.393592 -0.48206,2.319369 -1.69734,-2.05818 -1.40405,-0.825687"
     id="path138039"
     style="stroke-width:0.128412" /><path
     d="m 135.60429,105.28345 0.25965,-0.25939 0.24629,-0.24553 0.0252,-0.0262 0.0665,-0.0665 0.88398,-0.88398 0.24373,-0.24296 0.49541,-0.49618 0.19647,-0.19647 0.6965,-4.406572 0.2052,-2.252082 -1.19859,-2.251312 -1.72457,-1.301579"
     id="path138135"
     style="stroke-width:0.128412" /><path
     d="m 137.22587,66.934107 2.47038,0.941771 2.02325,2.358663 -1.05169,2.474234 -1.02138,2.628584 -1.14081,2.623449 -1.09638,2.443415 -1.04912,2.1342"
     id="path137577"
     style="stroke-width:0.128412" /><path
     d="m 149.31376,60.108776 -1.38992,-2.452147 -1.86428,-1.774391 -2.94397,-1.255351 -2.94396,-1.184468 -1.1593,-0.166935"
     id="path137507"
     style="stroke-width:0.128412" /><path
     d="m 155.83425,99.30024 -0.48386,-4.751485 -0.63435,-4.512125"
     id="path138097"
     style="stroke-width:0.128412" /><path
     d="m 157.54392,112.42416 -0.2296,-1.90794 -0.53728,-4.46051 -0.55396,-4.70089 -0.48052,-2.956286"
     id="path138095"
     style="stroke-width:0.128412" /><path
     d="m 139.42017,133.16442 -0.42453,2.07744 0.67365,2.10544 1.90871,2.02325 -1.11821,2.18993 -1.06582,2.01452 -0.8018,1.9195 -0.68931,1.88251 -0.0953,-2.18582 0.2106,-1.88688 0.48052,-2.9057"
     id="path138067"
     style="stroke-width:0.128412" /><path
     d="m 138.70389,131.83485 0.83698,-0.83699 -0.54523,4.244 -0.20007,1.95597 -0.38523,4.15822"
     id="path139501"
     style="stroke-width:0.128412" /><path
     d="m 132.91381,126.06557 -0.46228,0.8316 -0.28816,2.76855 -0.31024,2.83379 0.23679,-0.84213 1.26768,-0.64385 -0.62562,2.60958 -0.53727,2.66711 1.87558,-0.42813 2.65067,0.32925 0.88758,-2.27391 0.93278,-2.21973 0.75583,-2.13086 0.43763,-1.25175 0.0429,-0.0244 0.14305,-0.14331 0.38266,-0.38266 0.30228,-0.30229 0.98543,-0.98543"
     id="path139447"
     style="stroke-width:0.128412" /><path
     d="m 132.19471,136.29022 -0.78717,0.79923 -0.29175,0.87371 -1.65805,0.55808 -2.83481,-0.11788 -2.57799,-0.97131 -0.91994,-1.37169 0.19749,-2.5143 0.25323,-2.56053"
     id="path139641"
     style="stroke-width:0.128412" /><path
     d="m 124.13919,125.87501 0.1975,-3.93119 0.13534,-2.71257"
     id="path138261"
     style="stroke-width:0.128412" /><path
     d="m 124.40577,120.56802 -0.42992,-0.12328 -2.82069,-0.002 -2.32656,0.53727 -2.85484,-0.0557 -2.27494,-0.63872 -0.56167,-0.82646 0.0262,-0.29534 1.25895,-1.34704 0.97567,-0.9749 0.69805,-0.69805 1.50267,-1.50241 0.28379,-0.28405 0.1451,-0.1451"
     id="path138199"
     style="stroke-width:0.128412" /><path
     d="m 90.920664,115.78597 -2.152691,-0.24989 -2.870512,-0.80976 -0.262987,3.36849 -0.324881,3.19925 -1.670378,-1.14364 -0.241157,-1.22658 0.221125,-3.11527 0.313581,-3.2673 -1.144404,-0.96797 -0.01053,3.03488 -0.04725,3.17819 -0.01053,2.94396 0.09708,3.11706"
     id="path138595"
     style="stroke-width:0.128412" /><path
     d="m 92.034506,123.31294 -1.16007,2.47475 -1.07198,2.58672 1.838853,2.49941 2.613946,2.18222 -1.379397,2.53613 -1.448482,2.53176 -2.16656,-2.43828 -0.631528,-2.62344 0.414769,-2.41645 0.616889,-2.58313 -0.0375,-2.37459 0.179006,2.68637 -0.758399,2.27135"
     id="path138385"
     style="stroke-width:0.128412" /><path
     d="m 77.320339,127.61524 -2.840977,0.83596 -3.002519,0.1844 0.391398,2.94936 0.465621,3.04721 0.533935,2.91956 0.462025,2.9527 3.093434,-0.58351 2.250284,-1.148 1.492142,-1.3514 1.932338,-0.54087"
     id="path138601"
     style="stroke-width:0.128412" /><path
     d="m 87.704982,140.60561 -1.031916,-0.068 -2.791153,-0.90582 -1.534775,-1.32623 -0.249118,-1.41946 -0.13098,2.9116 -0.08989,2.83045 0.102986,1.43358 1.480842,1.35243"
     id="path138557"
     style="stroke-width:0.128412" /><path
     d="m 82.09802,136.88605 0.142536,-2.86384 0.144078,-3.00072 0.270948,-2.9057 0.205202,-2.76573 -0.04366,-1.50267 0.06909,1.16726 0.308187,1.28489 1.632882,1.27384 2.847911,0.77664 1.882514,0.14767"
     id="path138577"
     style="stroke-width:0.128412" /><path
     d="m 84.372188,133.67011 -1.642384,-1.26229 -0.34517,-1.38633 -0.07859,0.075 -0.289183,-2.73414 -0.256823,-2.80964 -2.682774,0.87525 -1.756927,1.18729"
     id="path140107"
     style="stroke-width:0.128412" /><path
     d="m 73.515762,122.54402 3.10833,-0.59763 1.865306,-1.2063"
     id="path140501"
     style="stroke-width:0.128412" /><path
     d="m 59.249238,127.13832 1.250985,2.49144 1.130279,2.49247 1.048352,2.27494 0.894515,2.22332 0.904274,2.28444 0.732973,2.12264 1.781325,-1.90177"
     id="path140285"
     style="stroke-width:0.128412" /><path
     d="m 50.389868,124.33587 -0.260162,2.96143 -0.32257,3.18871 0.267353,-0.20982 0.06292,-0.0629"
     id="path140445"
     style="stroke-width:0.128412" /><path
     d="m 50.3986,142.14244 -0.49798,-2.88566 -0.278653,-2.93703"
     id="path140279"
     style="stroke-width:0.128412" /><path
     d="m 79.937624,82.099769 -3.182552,0.208797 -2.7195,0.649249 -3.040786,0.385234 -0.971562,-0.397562 -0.0026,-3.160722 0.07422,-3.444511 0.166935,-0.210595 -0.446616,-3.490997 0.279681,3.701592"
     id="path138685"
     style="stroke-width:0.128412" /><path
     d="m 82.44396,95.243205 -1.006233,-0.185169 -3.153787,0.315378 -2.326304,0.958207 -3.18435,0.367771 0.463823,3.395718 0.513903,3.37568 -2.795777,-0.0578 -0.561672,-0.42787 0.03673,-3.280404 0.04905,-3.155585"
     id="path140169"
     style="stroke-width:0.128412" /><path
     d="m 120.396,105.91164 -0.0665,3.05131 -0.0796,2.99661 2.34223,-0.96616 2.95809,-0.5532 1.61439,-1.65882 1.45875,-1.45901 0.18183,-0.18158 0.20367,-0.20366 1.45618,-1.45619 1.31134,-1.31133"
     id="path137955"
     style="stroke-width:0.128412" /></g></svg>
